#!OML:ASF Y:\EmotionMaleHayes\Project 1\Capture day 1\Session 1\Male1.ASF
:FULLY-SPECIFIED
:DEGREES
79
root -27.8823 16.9837 1.04982 34.3542 84.7165 31.5897
lowerback 7.33279 2.73876 -4.13773
upperback 0.419057 3.30586 -0.347976
thorax -3.889 1.71604 1.60358
lowerneck -28.0623 1.76065 2.17492
upperneck 21.8253 2.2969 -2.52334
head 11.8396 0.875535 -0.892079
rclavicle -2.4786e-014 6.95746e-015
rhumerus -26.8323 21.4232 -97.2745
rradius 32.2385
rwrist -4.31586
rhand -10.7068 -35.0401
rfingers 7.12502
rthumb 15.303 -64.4539
lclavicle -2.4786e-014 6.95746e-015
lhumerus -38.3961 -23.7896 98.086
lradius 36.8935
lwrist 6.7448
lhand -16.6439 -19.0393
lfingers 7.12502
lthumb 9.57892 10.7229
rfemur 6.41924 -4.36005 9.35561
rtibia 8.53774
rfoot -24.2854 -2.54513
rtoes -2.3358
lfemur 5.97817 0.299464 -19.6997
ltibia 8.73155
lfoot -21.9198 8.88328
ltoes -7.88233
80
root -27.8355 16.9956 1.0322 40.1606 85.124 37.581
lowerback 7.68411 2.58518 -4.22693
upperback 0.54082 3.08115 -0.367489
thorax -3.94885 1.60623 1.64648
lowerneck -28.2494 1.67168 1.9805
upperneck 21.9103 2.21077 -2.37716
head 11.8997 0.838505 -0.820507
rclavicle -1.5704e-014 -4.37326e-015
rhumerus -26.5169 21.9509 -97.2608
rradius 33.1597
rwrist -5.33465
rhand -11.9217 -34.8959
rfingers 7.12502
rthumb 14.1325 -64.3953
lclavicle -1.5704e-014 -4.37326e-015
lhumerus -39.314 -24.7409 98.566
lradius 38.356
lwrist 8.66507
lhand -17.8851 -18.2418
lfingers 7.12502
lthumb 8.38122 11.5719
rfemur 7.17937 -4.43829 9.08144
rtibia 8.11372
rfoot -24.4435 -2.97682
rtoes -3.37095
lfemur 6.02463 0.0992386 -19.9922
ltibia 9.21509
lfoot -22.1571 8.21855
ltoes -7.95276
81
root -27.7977 16.9941 1.01204 43.0595 85.0363 40.257
lowerback 7.73883 2.55689 -4.4479
upperback 0.505101 3.01982 -0.385813
thorax -4.02351 1.58125 1.75456
lowerneck -28.3678 1.61136 1.85667
upperneck 21.945 2.18912 -2.41602
head 11.9333 0.811376 -0.818749
rclavicle 1.46604e-015 2.14687e-014
rhumerus -26.2085 22.7371 -97.3036
rradius 33.9474
rwrist -6.66125
rhand -13.9039 -33.3227
rfingers 7.12502
rthumb 12.2218 -62.9456
lclavicle 1.46604e-015 2.14687e-014
lhumerus -40.4994 -25.7765 99.2319
lradius 39.8866
lwrist 10.267
lhand -18.3623 -18.0333
lfingers 7.12502
lthumb 7.92063 11.7983
rfemur 7.1363 -4.74428 8.61496
rtibia 8.06372
rfoot -24.3319 -2.7778
rtoes -4.5769
lfemur 5.87635 -0.257543 -20.5235
ltibia 9.21394
lfoot -22.3523 8.29767
ltoes -5.98941
82
root -27.7597 16.9916 0.994167 41.8825 84.7527 38.8289
lowerback 7.75737 2.64902 -4.51738
upperback 0.457618 3.13121 -0.452044
thorax -4.09081 1.63881 1.70913
lowerneck -28.4419 1.63132 2.03228
upperneck 21.9904 2.20979 -2.64897
head 11.9707 0.80262 -0.932019
rclavicle 2.11209e-015 -3.97569e-015
rhumerus -25.9629 23.3265 -97.4198
rradius 35.0808
rwrist -7.35978
rhand -13.9527 -32.621
rfingers 7.12502
rthumb 12.1747 -62.2467
lclavicle 2.11209e-015 -3.97569e-015
lhumerus -41.8012 -26.5928 99.6232
lradius 41.8157
lwrist 12.1808
lhand -17.9786 -17.2481
lfingers 7.12502
lthumb 8.291 12.5692
rfemur 6.91578 -4.85403 8.3297
rtibia 8.08925
rfoot -24.1605 -2.40512
rtoes -4.54415
lfemur 5.95911 -0.875254 -20.9903
ltibia 8.75252
lfoot -22.5891 8.74624
ltoes -5.91876
83
root -27.7098 16.9913 0.978417 43.742 84.8144 40.5823
lowerback 7.73499 2.63043 -4.44008
upperback 0.548791 3.11349 -0.603098
thorax -3.96927 1.6251 1.5154
lowerneck -28.621 1.6313 2.17552
upperneck 22.0636 2.13761 -2.62212
head 12.031 0.784748 -0.958604
rclavicle 1.56543e-014 -2.10712e-014
rhumerus -25.6067 23.5587 -97.5404
rradius 36.1902
rwrist -8.15583
rhand -13.9439 -31.8578
rfingers 7.12502
rthumb 12.1832 -61.483
lclavicle 1.56543e-014 -2.10712e-014
lhumerus -43.2308 -27.7535 100.016
lradius 43.9721
lwrist 13.9808
lhand -18.4595 -16.2433
lfingers 7.12502
lthumb 7.82687 13.5919
rfemur 7.22668 -4.91603 8.12607
rtibia 7.72307
rfoot -24.2205 -2.49143
rtoes -4.40448
lfemur 6.10227 -1.34178 -21.275
ltibia 8.52273
lfoot -22.7327 8.65158
ltoes -5.60106
